<svg width="393" height="193" viewBox="0 0 393 193" fill="none" xmlns="http://www.w3.org/2000/svg">
<rect width="393" height="193" fill="#1A1A1A"/>
<path d="M128.744 89.4H134.504V123H128.744V89.4ZM139.592 123H132.248V117.672H139.448C141.112 117.672 142.648 117.432 144.056 116.952C145.464 116.472 146.68 115.752 147.704 114.792C148.76 113.832 149.576 112.632 150.152 111.192C150.76 109.752 151.064 108.088 151.064 106.2C151.064 104.312 150.76 102.648 150.152 101.208C149.576 99.768 148.76 98.568 147.704 97.608C146.68 96.648 145.464 95.928 144.056 95.448C142.648 94.968 141.112 94.728 139.448 94.728H132.248V89.4H139.592C143.016 89.4 146.024 90.104 148.616 91.512C151.208 92.888 153.224 94.84 154.664 97.368C156.136 99.864 156.872 102.808 156.872 106.2C156.872 109.592 156.136 112.552 154.664 115.08C153.224 117.576 151.208 119.528 148.616 120.936C146.024 122.312 143.016 123 139.592 123ZM167.104 100.92V123H161.968V100.92H167.104ZM173.68 106.44C173.2 106.056 172.752 105.768 172.336 105.576C171.92 105.384 171.392 105.288 170.752 105.288C169.888 105.288 169.184 105.512 168.64 105.96C168.096 106.408 167.696 107.032 167.44 107.832C167.216 108.6 167.104 109.512 167.104 110.568L165.376 109.56C165.376 107.8 165.696 106.248 166.336 104.904C167.008 103.528 167.856 102.44 168.88 101.64C169.936 100.84 171.024 100.44 172.144 100.44C172.944 100.44 173.696 100.568 174.4 100.824C175.104 101.048 175.696 101.464 176.176 102.072L173.68 106.44ZM179.542 92.136C179.542 91.24 179.862 90.488 180.502 89.88C181.174 89.272 181.942 88.968 182.806 88.968C183.734 88.968 184.502 89.272 185.11 89.88C185.75 90.488 186.07 91.24 186.07 92.136C186.07 93 185.75 93.752 185.11 94.392C184.502 95 183.734 95.304 182.806 95.304C181.942 95.304 181.174 95 180.502 94.392C179.862 93.752 179.542 93 179.542 92.136ZM180.262 100.92H185.35V123H180.262V100.92ZM190.66 100.92H203.332V105.48H190.66V100.92ZM202.756 91.128C202.436 90.616 202.068 90.28 201.652 90.12C201.268 89.96 200.868 89.88 200.452 89.88C199.972 89.88 199.556 90.008 199.204 90.264C198.884 90.52 198.628 90.936 198.436 91.512C198.244 92.088 198.148 92.84 198.148 93.768V123H193.06V92.76C193.06 91.032 193.332 89.608 193.876 88.488C194.452 87.336 195.268 86.472 196.324 85.896C197.38 85.288 198.676 84.984 200.212 84.984C201.076 84.984 201.828 85.096 202.468 85.32C203.108 85.544 203.652 85.816 204.1 86.136C204.58 86.456 204.948 86.776 205.204 87.096L202.756 91.128ZM204.224 100.92H216.752V105.48H204.224V100.92ZM207.92 93.24H213.056V123H207.92V93.24ZM220.52 89.4H226.184V111.72C226.184 113.8 226.728 115.48 227.816 116.76C228.936 118.008 230.584 118.632 232.76 118.632C234.904 118.632 236.536 118.008 237.656 116.76C238.776 115.48 239.336 113.8 239.336 111.72V89.4H245V111.96C245 113.816 244.696 115.48 244.088 116.952C243.512 118.392 242.68 119.624 241.592 120.648C240.504 121.672 239.208 122.456 237.704 123C236.2 123.544 234.552 123.816 232.76 123.816C230.968 123.816 229.32 123.544 227.816 123C226.312 122.456 225 121.672 223.88 120.648C222.792 119.624 221.96 118.392 221.384 116.952C220.808 115.48 220.52 113.816 220.52 111.96V89.4ZM252.836 115.752C253.54 116.52 254.244 117.192 254.948 117.768C255.684 118.312 256.42 118.728 257.156 119.016C257.892 119.272 258.628 119.4 259.364 119.4C260.292 119.4 261.012 119.192 261.524 118.776C262.068 118.36 262.34 117.784 262.34 117.048C262.34 116.408 262.132 115.864 261.716 115.416C261.3 114.936 260.724 114.536 259.988 114.216C259.252 113.864 258.388 113.512 257.396 113.16C256.404 112.776 255.412 112.328 254.42 111.816C253.46 111.272 252.66 110.568 252.02 109.704C251.412 108.84 251.108 107.752 251.108 106.44C251.108 105.096 251.444 103.976 252.116 103.08C252.82 102.184 253.748 101.528 254.9 101.112C256.084 100.664 257.348 100.44 258.692 100.44C259.908 100.44 261.044 100.616 262.1 100.968C263.188 101.32 264.164 101.784 265.028 102.36C265.892 102.936 266.628 103.592 267.236 104.328L264.356 107.4C263.62 106.536 262.74 105.832 261.716 105.288C260.692 104.744 259.636 104.472 258.548 104.472C257.812 104.472 257.204 104.632 256.724 104.952C256.244 105.272 256.004 105.736 256.004 106.344C256.004 106.856 256.212 107.32 256.628 107.736C257.076 108.12 257.652 108.472 258.356 108.792C259.092 109.112 259.908 109.448 260.804 109.8C262.02 110.28 263.14 110.808 264.164 111.384C265.188 111.96 266.004 112.664 266.612 113.496C267.252 114.328 267.572 115.416 267.572 116.76C267.572 118.84 266.852 120.52 265.412 121.8C264.004 123.048 262.084 123.672 259.652 123.672C258.148 123.672 256.756 123.448 255.476 123C254.228 122.52 253.124 121.912 252.164 121.176C251.236 120.408 250.452 119.608 249.812 118.776L252.836 115.752Z" fill="white"/>
<path d="M139.597 158.632V157.8H144.509V158.632H139.597ZM139.597 163.352V162.52H144.349V163.352H139.597ZM139.133 157.8H140.013V169H139.133V157.8ZM149.024 169.16C148.363 169.16 147.776 168.995 147.264 168.664C146.752 168.333 146.347 167.88 146.048 167.304C145.76 166.717 145.616 166.051 145.616 165.304C145.616 164.557 145.766 163.896 146.064 163.32C146.363 162.744 146.779 162.296 147.312 161.976C147.846 161.645 148.459 161.48 149.152 161.48C149.824 161.48 150.411 161.635 150.912 161.944C151.424 162.253 151.819 162.685 152.096 163.24C152.384 163.784 152.528 164.413 152.528 165.128C152.528 165.192 152.523 165.261 152.512 165.336C152.512 165.411 152.507 165.475 152.496 165.528H146.144V164.808H151.872L151.52 165.304C151.542 165.251 151.563 165.181 151.584 165.096C151.616 165 151.632 164.909 151.632 164.824C151.632 164.323 151.52 163.875 151.296 163.48C151.083 163.085 150.79 162.776 150.416 162.552C150.043 162.328 149.622 162.216 149.152 162.216C148.608 162.216 148.134 162.344 147.728 162.6C147.334 162.845 147.024 163.197 146.8 163.656C146.576 164.104 146.464 164.637 146.464 165.256C146.464 165.885 146.571 166.435 146.784 166.904C147.008 167.373 147.318 167.736 147.712 167.992C148.118 168.248 148.587 168.376 149.12 168.376C149.686 168.376 150.176 168.253 150.592 168.008C151.019 167.763 151.398 167.379 151.728 166.856L152.4 167.288C151.984 167.928 151.499 168.403 150.944 168.712C150.4 169.011 149.76 169.16 149.024 169.16ZM157.18 169.16C156.519 169.16 155.932 168.995 155.42 168.664C154.908 168.333 154.503 167.88 154.204 167.304C153.916 166.717 153.772 166.051 153.772 165.304C153.772 164.557 153.922 163.896 154.22 163.32C154.519 162.744 154.935 162.296 155.468 161.976C156.002 161.645 156.615 161.48 157.308 161.48C157.98 161.48 158.567 161.635 159.068 161.944C159.58 162.253 159.975 162.685 160.252 163.24C160.54 163.784 160.684 164.413 160.684 165.128C160.684 165.192 160.679 165.261 160.668 165.336C160.668 165.411 160.663 165.475 160.652 165.528H154.3V164.808H160.028L159.676 165.304C159.698 165.251 159.719 165.181 159.74 165.096C159.772 165 159.788 164.909 159.788 164.824C159.788 164.323 159.676 163.875 159.452 163.48C159.239 163.085 158.946 162.776 158.572 162.552C158.199 162.328 157.778 162.216 157.308 162.216C156.764 162.216 156.29 162.344 155.884 162.6C155.49 162.845 155.18 163.197 154.956 163.656C154.732 164.104 154.62 164.637 154.62 165.256C154.62 165.885 154.727 166.435 154.94 166.904C155.164 167.373 155.474 167.736 155.868 167.992C156.274 168.248 156.743 168.376 157.276 168.376C157.842 168.376 158.332 168.253 158.748 168.008C159.175 167.763 159.554 167.379 159.884 166.856L160.556 167.288C160.14 167.928 159.655 168.403 159.1 168.712C158.556 169.011 157.916 169.16 157.18 169.16ZM162.569 156.52H163.401V169H162.569V156.52ZM169.605 161.64H172.837V162.424H169.605V161.64ZM170.805 159.08H171.637V169H170.805V159.08ZM175.073 156.52V169H174.241V156.52H175.073ZM178.961 164.264C178.961 163.635 178.822 163.144 178.545 162.792C178.278 162.44 177.841 162.264 177.233 162.264C176.817 162.264 176.443 162.365 176.113 162.568C175.793 162.771 175.537 163.043 175.345 163.384C175.163 163.725 175.073 164.104 175.073 164.52H174.785C174.785 163.933 174.897 163.416 175.121 162.968C175.355 162.509 175.67 162.147 176.065 161.88C176.459 161.613 176.913 161.48 177.425 161.48C177.937 161.48 178.369 161.587 178.721 161.8C179.073 162.003 179.339 162.307 179.521 162.712C179.702 163.107 179.793 163.592 179.793 164.168V169H178.961V164.264ZM185.087 169.16C184.425 169.16 183.839 168.995 183.327 168.664C182.815 168.333 182.409 167.88 182.111 167.304C181.823 166.717 181.679 166.051 181.679 165.304C181.679 164.557 181.828 163.896 182.127 163.32C182.425 162.744 182.841 162.296 183.375 161.976C183.908 161.645 184.521 161.48 185.215 161.48C185.887 161.48 186.473 161.635 186.975 161.944C187.487 162.253 187.881 162.685 188.159 163.24C188.447 163.784 188.591 164.413 188.591 165.128C188.591 165.192 188.585 165.261 188.575 165.336C188.575 165.411 188.569 165.475 188.559 165.528H182.207V164.808H187.935L187.583 165.304C187.604 165.251 187.625 165.181 187.647 165.096C187.679 165 187.695 164.909 187.695 164.824C187.695 164.323 187.583 163.875 187.359 163.48C187.145 163.085 186.852 162.776 186.479 162.552C186.105 162.328 185.684 162.216 185.215 162.216C184.671 162.216 184.196 162.344 183.791 162.6C183.396 162.845 183.087 163.197 182.863 163.656C182.639 164.104 182.527 164.637 182.527 165.256C182.527 165.885 182.633 166.435 182.847 166.904C183.071 167.373 183.38 167.736 183.775 167.992C184.18 168.248 184.649 168.376 185.183 168.376C185.748 168.376 186.239 168.253 186.655 168.008C187.081 167.763 187.46 167.379 187.791 166.856L188.463 167.288C188.047 167.928 187.561 168.403 187.007 168.712C186.463 169.011 185.823 169.16 185.087 169.16ZM204.648 164.168V169H203.816V164.264C203.816 163.624 203.693 163.133 203.448 162.792C203.202 162.44 202.824 162.264 202.312 162.264C201.949 162.264 201.618 162.36 201.32 162.552C201.032 162.744 200.802 163.011 200.632 163.352C200.461 163.693 200.376 164.083 200.376 164.52V169H199.544V164.264C199.544 163.624 199.421 163.133 199.176 162.792C198.93 162.44 198.552 162.264 198.04 162.264C197.677 162.264 197.346 162.36 197.048 162.552C196.76 162.744 196.53 163.011 196.36 163.352C196.189 163.693 196.104 164.083 196.104 164.52V169H195.272V161.64H196.104V163.128C196.296 162.605 196.578 162.2 196.952 161.912C197.325 161.624 197.752 161.48 198.232 161.48C198.765 161.48 199.202 161.635 199.544 161.944C199.885 162.243 200.114 162.653 200.232 163.176C200.445 162.643 200.754 162.227 201.16 161.928C201.565 161.629 202.013 161.48 202.504 161.48C202.962 161.48 203.352 161.587 203.672 161.8C203.992 162.013 204.232 162.323 204.392 162.728C204.562 163.133 204.648 163.613 204.648 164.168ZM209.946 169.16C209.285 169.16 208.698 168.995 208.186 168.664C207.674 168.333 207.269 167.88 206.97 167.304C206.682 166.717 206.538 166.051 206.538 165.304C206.538 164.557 206.687 163.896 206.986 163.32C207.285 162.744 207.701 162.296 208.234 161.976C208.767 161.645 209.381 161.48 210.074 161.48C210.746 161.48 211.333 161.635 211.834 161.944C212.346 162.253 212.741 162.685 213.018 163.24C213.306 163.784 213.45 164.413 213.45 165.128C213.45 165.192 213.445 165.261 213.434 165.336C213.434 165.411 213.429 165.475 213.418 165.528H207.066V164.808H212.794L212.442 165.304C212.463 165.251 212.485 165.181 212.506 165.096C212.538 165 212.554 164.909 212.554 164.824C212.554 164.323 212.442 163.875 212.218 163.48C212.005 163.085 211.711 162.776 211.338 162.552C210.965 162.328 210.543 162.216 210.074 162.216C209.53 162.216 209.055 162.344 208.65 162.6C208.255 162.845 207.946 163.197 207.722 163.656C207.498 164.104 207.386 164.637 207.386 165.256C207.386 165.885 207.493 166.435 207.706 166.904C207.93 167.373 208.239 167.736 208.634 167.992C209.039 168.248 209.509 168.376 210.042 168.376C210.607 168.376 211.098 168.253 211.514 168.008C211.941 167.763 212.319 167.379 212.65 166.856L213.322 167.288C212.906 167.928 212.421 168.403 211.866 168.712C211.322 169.011 210.682 169.16 209.946 169.16ZM215.318 166.904C215.425 167.171 215.569 167.416 215.75 167.64C215.932 167.864 216.161 168.045 216.438 168.184C216.726 168.323 217.062 168.392 217.446 168.392C217.894 168.392 218.252 168.28 218.518 168.056C218.796 167.821 218.934 167.501 218.934 167.096C218.934 166.797 218.849 166.552 218.678 166.36C218.508 166.157 218.284 165.992 218.006 165.864C217.729 165.725 217.43 165.603 217.11 165.496C216.769 165.368 216.438 165.224 216.118 165.064C215.798 164.904 215.532 164.691 215.318 164.424C215.116 164.147 215.014 163.789 215.014 163.352C215.014 162.936 215.116 162.589 215.318 162.312C215.532 162.035 215.804 161.832 216.134 161.704C216.476 161.565 216.838 161.496 217.222 161.496C217.638 161.496 218.012 161.565 218.342 161.704C218.673 161.843 218.956 162.024 219.19 162.248C219.425 162.472 219.606 162.723 219.734 163L219.046 163.416C218.876 163.096 218.636 162.819 218.326 162.584C218.017 162.349 217.617 162.232 217.126 162.232C216.764 162.232 216.454 162.323 216.198 162.504C215.953 162.685 215.83 162.952 215.83 163.304C215.83 163.592 215.91 163.832 216.07 164.024C216.23 164.205 216.444 164.355 216.71 164.472C216.977 164.589 217.26 164.701 217.558 164.808C217.953 164.957 218.316 165.123 218.646 165.304C218.988 165.485 219.26 165.709 219.462 165.976C219.676 166.243 219.782 166.584 219.782 167C219.782 167.64 219.558 168.163 219.11 168.568C218.673 168.963 218.102 169.16 217.398 169.16C216.886 169.16 216.438 169.069 216.054 168.888C215.681 168.707 215.377 168.472 215.142 168.184C214.918 167.896 214.753 167.597 214.646 167.288L215.318 166.904ZM221.771 166.904C221.878 167.171 222.022 167.416 222.203 167.64C222.385 167.864 222.614 168.045 222.891 168.184C223.179 168.323 223.515 168.392 223.899 168.392C224.347 168.392 224.705 168.28 224.971 168.056C225.249 167.821 225.387 167.501 225.387 167.096C225.387 166.797 225.302 166.552 225.131 166.36C224.961 166.157 224.737 165.992 224.459 165.864C224.182 165.725 223.883 165.603 223.563 165.496C223.222 165.368 222.891 165.224 222.571 165.064C222.251 164.904 221.985 164.691 221.771 164.424C221.569 164.147 221.467 163.789 221.467 163.352C221.467 162.936 221.569 162.589 221.771 162.312C221.985 162.035 222.257 161.832 222.587 161.704C222.929 161.565 223.291 161.496 223.675 161.496C224.091 161.496 224.465 161.565 224.795 161.704C225.126 161.843 225.409 162.024 225.643 162.248C225.878 162.472 226.059 162.723 226.187 163L225.499 163.416C225.329 163.096 225.089 162.819 224.779 162.584C224.47 162.349 224.07 162.232 223.579 162.232C223.217 162.232 222.907 162.323 222.651 162.504C222.406 162.685 222.283 162.952 222.283 163.304C222.283 163.592 222.363 163.832 222.523 164.024C222.683 164.205 222.897 164.355 223.163 164.472C223.43 164.589 223.713 164.701 224.011 164.808C224.406 164.957 224.769 165.123 225.099 165.304C225.441 165.485 225.713 165.709 225.915 165.976C226.129 166.243 226.235 166.584 226.235 167C226.235 167.64 226.011 168.163 225.563 168.568C225.126 168.963 224.555 169.16 223.851 169.16C223.339 169.16 222.891 169.069 222.507 168.888C222.134 168.707 221.83 168.472 221.595 168.184C221.371 167.896 221.206 167.597 221.099 167.288L221.771 166.904ZM228.369 166.792C228.369 167.155 228.449 167.459 228.609 167.704C228.779 167.949 229.003 168.136 229.281 168.264C229.569 168.381 229.883 168.44 230.225 168.44C230.641 168.44 231.019 168.344 231.361 168.152C231.713 167.96 231.995 167.677 232.209 167.304C232.422 166.931 232.529 166.472 232.529 165.928L232.721 166.632C232.721 167.208 232.582 167.683 232.305 168.056C232.027 168.429 231.681 168.707 231.265 168.888C230.849 169.069 230.427 169.16 230.001 169.16C229.585 169.16 229.185 169.075 228.801 168.904C228.417 168.723 228.107 168.461 227.873 168.12C227.638 167.779 227.521 167.347 227.521 166.824C227.521 166.109 227.766 165.544 228.257 165.128C228.758 164.712 229.435 164.504 230.289 164.504C230.769 164.504 231.179 164.563 231.521 164.68C231.873 164.787 232.161 164.909 232.385 165.048C232.609 165.187 232.769 165.304 232.865 165.4V165.928C232.502 165.672 232.113 165.485 231.697 165.368C231.291 165.24 230.865 165.176 230.417 165.176C230.001 165.176 229.638 165.235 229.329 165.352C229.03 165.469 228.795 165.645 228.625 165.88C228.454 166.115 228.369 166.419 228.369 166.792ZM228.401 162.984L227.985 162.36C228.262 162.168 228.619 161.976 229.057 161.784C229.505 161.581 230.054 161.48 230.705 161.48C231.259 161.48 231.734 161.571 232.129 161.752C232.523 161.933 232.827 162.195 233.041 162.536C233.254 162.877 233.361 163.293 233.361 163.784V169H232.529V163.896C232.529 163.683 232.497 163.48 232.433 163.288C232.369 163.085 232.262 162.904 232.113 162.744C231.974 162.584 231.782 162.456 231.537 162.36C231.291 162.264 230.993 162.216 230.641 162.216C230.278 162.216 229.953 162.259 229.665 162.344C229.377 162.429 229.126 162.531 228.913 162.648C228.71 162.765 228.539 162.877 228.401 162.984ZM235.183 169.48H236.031C236.031 169.939 236.137 170.349 236.351 170.712C236.564 171.075 236.863 171.363 237.247 171.576C237.641 171.789 238.095 171.896 238.607 171.896C239.065 171.896 239.497 171.789 239.903 171.576C240.308 171.363 240.639 171.027 240.895 170.568C241.161 170.12 241.295 169.544 241.295 168.84V161.64H242.127V168.84C242.127 169.683 241.961 170.387 241.631 170.952C241.3 171.528 240.868 171.96 240.335 172.248C239.801 172.536 239.225 172.68 238.607 172.68C237.935 172.68 237.337 172.547 236.815 172.28C236.303 172.013 235.903 171.635 235.615 171.144C235.327 170.664 235.183 170.109 235.183 169.48ZM235.007 165.32C235.007 164.52 235.167 163.837 235.487 163.272C235.807 162.696 236.233 162.253 236.767 161.944C237.311 161.635 237.908 161.48 238.559 161.48C239.199 161.48 239.748 161.651 240.207 161.992C240.665 162.323 241.023 162.776 241.279 163.352C241.545 163.928 241.679 164.584 241.679 165.32C241.679 166.045 241.545 166.701 241.279 167.288C241.023 167.864 240.665 168.323 240.207 168.664C239.748 168.995 239.199 169.16 238.559 169.16C237.908 169.16 237.311 169.005 236.767 168.696C236.233 168.387 235.807 167.944 235.487 167.368C235.167 166.792 235.007 166.109 235.007 165.32ZM235.855 165.32C235.855 165.96 235.977 166.509 236.223 166.968C236.479 167.427 236.82 167.779 237.247 168.024C237.684 168.259 238.159 168.376 238.671 168.376C239.129 168.376 239.556 168.243 239.951 167.976C240.356 167.709 240.681 167.347 240.927 166.888C241.172 166.419 241.295 165.885 241.295 165.288C241.295 164.861 241.225 164.467 241.087 164.104C240.948 163.741 240.751 163.421 240.495 163.144C240.249 162.867 239.967 162.653 239.647 162.504C239.337 162.344 239.012 162.264 238.671 162.264C238.159 162.264 237.684 162.387 237.247 162.632C236.82 162.867 236.479 163.213 236.223 163.672C235.977 164.131 235.855 164.68 235.855 165.32ZM247.337 169.16C246.675 169.16 246.089 168.995 245.577 168.664C245.065 168.333 244.659 167.88 244.361 167.304C244.073 166.717 243.929 166.051 243.929 165.304C243.929 164.557 244.078 163.896 244.377 163.32C244.675 162.744 245.091 162.296 245.625 161.976C246.158 161.645 246.771 161.48 247.465 161.48C248.137 161.48 248.723 161.635 249.225 161.944C249.737 162.253 250.131 162.685 250.409 163.24C250.697 163.784 250.841 164.413 250.841 165.128C250.841 165.192 250.835 165.261 250.825 165.336C250.825 165.411 250.819 165.475 250.809 165.528H244.457V164.808H250.185L249.833 165.304C249.854 165.251 249.875 165.181 249.897 165.096C249.929 165 249.945 164.909 249.945 164.824C249.945 164.323 249.833 163.875 249.609 163.48C249.395 163.085 249.102 162.776 248.729 162.552C248.355 162.328 247.934 162.216 247.465 162.216C246.921 162.216 246.446 162.344 246.041 162.6C245.646 162.845 245.337 163.197 245.113 163.656C244.889 164.104 244.777 164.637 244.777 165.256C244.777 165.885 244.883 166.435 245.097 166.904C245.321 167.373 245.63 167.736 246.025 167.992C246.43 168.248 246.899 168.376 247.433 168.376C247.998 168.376 248.489 168.253 248.905 168.008C249.331 167.763 249.71 167.379 250.041 166.856L250.713 167.288C250.297 167.928 249.811 168.403 249.257 168.712C248.713 169.011 248.073 169.16 247.337 169.16ZM252.344 168.616C252.344 168.445 252.403 168.301 252.52 168.184C252.637 168.067 252.776 168.008 252.936 168.008C253.107 168.008 253.245 168.067 253.352 168.184C253.469 168.301 253.528 168.445 253.528 168.616C253.528 168.776 253.469 168.915 253.352 169.032C253.245 169.149 253.107 169.208 252.936 169.208C252.776 169.208 252.637 169.149 252.52 169.032C252.403 168.915 252.344 168.776 252.344 168.616Z" fill="white"/>
<path d="M326 52.5C340.663 52.5 352.5 63.7194 352.5 77.5C352.5 91.2806 340.663 102.5 326 102.5C311.337 102.5 299.5 91.2806 299.5 77.5C299.5 63.7194 311.337 52.5 326 52.5Z" stroke="#BE3D3D"/>
<path d="M326 52.5C340.663 52.5 352.5 63.7194 352.5 77.5C352.5 91.2806 340.663 102.5 326 102.5C311.337 102.5 299.5 91.2806 299.5 77.5C299.5 63.7194 311.337 52.5 326 52.5Z" stroke="#BE3D3D"/>
<path d="M338.166 100.5C338.492 100.499 338.699 100.58 338.854 100.726C339.022 100.885 339.191 101.18 339.313 101.731C339.434 102.273 339.498 103.014 339.499 104.009C338.998 107.79 337.679 112.281 335.438 115.895C333.198 119.505 330.087 122.171 326.01 122.496C322.244 122.006 319.128 119.333 316.805 115.756C314.481 112.179 313.004 107.774 312.5 104.008C312.501 103.013 312.566 102.273 312.687 101.731C312.809 101.18 312.978 100.885 313.146 100.726C313.301 100.58 313.508 100.499 313.834 100.5C314.175 100.501 314.608 100.591 315.164 100.76C317.354 101.425 320.981 103.189 326 103.189C331.019 103.189 334.646 101.425 336.836 100.76C337.392 100.591 337.825 100.501 338.166 100.5Z" stroke="#BE3D3D"/>
<path d="M338.166 100.5C338.492 100.499 338.699 100.58 338.854 100.726C339.022 100.885 339.191 101.18 339.313 101.731C339.434 102.273 339.498 103.014 339.499 104.009C338.998 107.79 337.679 112.281 335.438 115.895C333.198 119.505 330.087 122.171 326.01 122.496C322.244 122.006 319.128 119.333 316.805 115.756C314.481 112.179 313.004 107.774 312.5 104.008C312.501 103.013 312.566 102.273 312.687 101.731C312.809 101.18 312.978 100.885 313.146 100.726C313.301 100.58 313.508 100.499 313.834 100.5C314.175 100.501 314.608 100.591 315.164 100.76C317.354 101.425 320.981 103.189 326 103.189C331.019 103.189 334.646 101.425 336.836 100.76C337.392 100.591 337.825 100.501 338.166 100.5Z" stroke="#BE3D3D"/>
<path d="M335.474 79.4824C331.84 80.6266 328.922 81.1712 325.995 81.1523C323.068 81.1334 320.15 80.5518 316.52 79.4697L326 102.221L335.474 79.4824Z" stroke="#BE3D3D" stroke-width="0.6"/>
<path d="M335.474 79.4824C331.84 80.6266 328.922 81.1712 325.995 81.1523C323.068 81.1334 320.15 80.5518 316.52 79.4697L326 102.221L335.474 79.4824Z" stroke="#BE3D3D" stroke-width="0.6"/>
<path d="M74 52.5C88.6629 52.5 100.5 63.7194 100.5 77.5C100.5 91.2806 88.6629 102.5 74 102.5C59.3371 102.5 47.5 91.2806 47.5 77.5C47.5 63.7194 59.3371 52.5 74 52.5Z" stroke="#BE9C3D"/>
<path d="M86.166 100.5C86.4919 100.499 86.6986 100.58 86.8535 100.726C87.0224 100.885 87.1912 101.18 87.3135 101.731C87.4337 102.273 87.4976 103.014 87.499 104.009C86.9978 107.79 85.6788 112.281 83.4375 115.895C81.1984 119.505 78.0872 122.171 74.0098 122.496C70.2442 122.006 67.1276 119.333 64.8047 115.756C62.4815 112.179 61.0045 107.774 60.5 104.008C60.5015 103.013 60.5664 102.273 60.6865 101.731C60.8088 101.18 60.9776 100.885 61.1465 100.726C61.3014 100.58 61.5081 100.499 61.834 100.5C62.1751 100.501 62.6084 100.591 63.1641 100.76C65.3543 101.425 68.9809 103.189 74 103.189C79.0191 103.189 82.6457 101.425 84.8359 100.76C85.3916 100.591 85.8249 100.501 86.166 100.5Z" stroke="#BE9C3D"/>
<path d="M83.4736 79.4824C79.8403 80.6266 76.9224 81.1712 73.9951 81.1523C71.0681 81.1334 68.1503 80.5518 64.5195 79.4697L74 102.221L83.4736 79.4824Z" stroke="#BE9C3D" stroke-width="0.6"/>
<line x1="316" y1="112.7" x2="336" y2="112.7" stroke="#BE3D3D" stroke-width="0.6"/>
<line x1="316" y1="112.7" x2="336" y2="112.7" stroke="#BE3D3D" stroke-width="0.6"/>
<line x1="64" y1="112.7" x2="84" y2="112.7" stroke="#BE9C3D" stroke-width="0.6"/>
</svg>
