<svg width="393" height="156" viewBox="0 0 393 156" fill="none" xmlns="http://www.w3.org/2000/svg">
<rect width="393" height="156" fill="#1A1A1A"/>
<path d="M128.744 58.4H134.504V92H128.744V58.4ZM139.592 92H132.248V86.672H139.448C141.112 86.672 142.648 86.432 144.056 85.952C145.464 85.472 146.68 84.752 147.704 83.792C148.76 82.832 149.576 81.632 150.152 80.192C150.76 78.752 151.064 77.088 151.064 75.2C151.064 73.312 150.76 71.648 150.152 70.208C149.576 68.768 148.76 67.568 147.704 66.608C146.68 65.648 145.464 64.928 144.056 64.448C142.648 63.968 141.112 63.728 139.448 63.728H132.248V58.4H139.592C143.016 58.4 146.024 59.104 148.616 60.512C151.208 61.888 153.224 63.84 154.664 66.368C156.136 68.864 156.872 71.808 156.872 75.2C156.872 78.592 156.136 81.552 154.664 84.08C153.224 86.576 151.208 88.528 148.616 89.936C146.024 91.312 143.016 92 139.592 92ZM167.104 69.92V92H161.968V69.92H167.104ZM173.68 75.44C173.2 75.056 172.752 74.768 172.336 74.576C171.92 74.384 171.392 74.288 170.752 74.288C169.888 74.288 169.184 74.512 168.64 74.96C168.096 75.408 167.696 76.032 167.44 76.832C167.216 77.6 167.104 78.512 167.104 79.568L165.376 78.56C165.376 76.8 165.696 75.248 166.336 73.904C167.008 72.528 167.856 71.44 168.88 70.64C169.936 69.84 171.024 69.44 172.144 69.44C172.944 69.44 173.696 69.568 174.4 69.824C175.104 70.048 175.696 70.464 176.176 71.072L173.68 75.44ZM179.542 61.136C179.542 60.24 179.862 59.488 180.502 58.88C181.174 58.272 181.942 57.968 182.806 57.968C183.734 57.968 184.502 58.272 185.11 58.88C185.75 59.488 186.07 60.24 186.07 61.136C186.07 62 185.75 62.752 185.11 63.392C184.502 64 183.734 64.304 182.806 64.304C181.942 64.304 181.174 64 180.502 63.392C179.862 62.752 179.542 62 179.542 61.136ZM180.262 69.92H185.35V92H180.262V69.92ZM190.66 69.92H203.332V74.48H190.66V69.92ZM202.756 60.128C202.436 59.616 202.068 59.28 201.652 59.12C201.268 58.96 200.868 58.88 200.452 58.88C199.972 58.88 199.556 59.008 199.204 59.264C198.884 59.52 198.628 59.936 198.436 60.512C198.244 61.088 198.148 61.84 198.148 62.768V92H193.06V61.76C193.06 60.032 193.332 58.608 193.876 57.488C194.452 56.336 195.268 55.472 196.324 54.896C197.38 54.288 198.676 53.984 200.212 53.984C201.076 53.984 201.828 54.096 202.468 54.32C203.108 54.544 203.652 54.816 204.1 55.136C204.58 55.456 204.948 55.776 205.204 56.096L202.756 60.128ZM204.224 69.92H216.752V74.48H204.224V69.92ZM207.92 62.24H213.056V92H207.92V62.24ZM220.52 58.4H226.184V80.72C226.184 82.8 226.728 84.48 227.816 85.76C228.936 87.008 230.584 87.632 232.76 87.632C234.904 87.632 236.536 87.008 237.656 85.76C238.776 84.48 239.336 82.8 239.336 80.72V58.4H245V80.96C245 82.816 244.696 84.48 244.088 85.952C243.512 87.392 242.68 88.624 241.592 89.648C240.504 90.672 239.208 91.456 237.704 92C236.2 92.544 234.552 92.816 232.76 92.816C230.968 92.816 229.32 92.544 227.816 92C226.312 91.456 225 90.672 223.88 89.648C222.792 88.624 221.96 87.392 221.384 85.952C220.808 84.48 220.52 82.816 220.52 80.96V58.4ZM252.836 84.752C253.54 85.52 254.244 86.192 254.948 86.768C255.684 87.312 256.42 87.728 257.156 88.016C257.892 88.272 258.628 88.4 259.364 88.4C260.292 88.4 261.012 88.192 261.524 87.776C262.068 87.36 262.34 86.784 262.34 86.048C262.34 85.408 262.132 84.864 261.716 84.416C261.3 83.936 260.724 83.536 259.988 83.216C259.252 82.864 258.388 82.512 257.396 82.16C256.404 81.776 255.412 81.328 254.42 80.816C253.46 80.272 252.66 79.568 252.02 78.704C251.412 77.84 251.108 76.752 251.108 75.44C251.108 74.096 251.444 72.976 252.116 72.08C252.82 71.184 253.748 70.528 254.9 70.112C256.084 69.664 257.348 69.44 258.692 69.44C259.908 69.44 261.044 69.616 262.1 69.968C263.188 70.32 264.164 70.784 265.028 71.36C265.892 71.936 266.628 72.592 267.236 73.328L264.356 76.4C263.62 75.536 262.74 74.832 261.716 74.288C260.692 73.744 259.636 73.472 258.548 73.472C257.812 73.472 257.204 73.632 256.724 73.952C256.244 74.272 256.004 74.736 256.004 75.344C256.004 75.856 256.212 76.32 256.628 76.736C257.076 77.12 257.652 77.472 258.356 77.792C259.092 78.112 259.908 78.448 260.804 78.8C262.02 79.28 263.14 79.808 264.164 80.384C265.188 80.96 266.004 81.664 266.612 82.496C267.252 83.328 267.572 84.416 267.572 85.76C267.572 87.84 266.852 89.52 265.412 90.8C264.004 92.048 262.084 92.672 259.652 92.672C258.148 92.672 256.756 92.448 255.476 92C254.228 91.52 253.124 90.912 252.164 90.176C251.236 89.408 250.452 88.608 249.812 87.776L252.836 84.752Z" fill="white"/>
<path d="M139.597 127.632V126.8H144.509V127.632H139.597ZM139.597 132.352V131.52H144.349V132.352H139.597ZM139.133 126.8H140.013V138H139.133V126.8ZM149.024 138.16C148.363 138.16 147.776 137.995 147.264 137.664C146.752 137.333 146.347 136.88 146.048 136.304C145.76 135.717 145.616 135.051 145.616 134.304C145.616 133.557 145.766 132.896 146.064 132.32C146.363 131.744 146.779 131.296 147.312 130.976C147.846 130.645 148.459 130.48 149.152 130.48C149.824 130.48 150.411 130.635 150.912 130.944C151.424 131.253 151.819 131.685 152.096 132.24C152.384 132.784 152.528 133.413 152.528 134.128C152.528 134.192 152.523 134.261 152.512 134.336C152.512 134.411 152.507 134.475 152.496 134.528H146.144V133.808H151.872L151.52 134.304C151.542 134.251 151.563 134.181 151.584 134.096C151.616 134 151.632 133.909 151.632 133.824C151.632 133.323 151.52 132.875 151.296 132.48C151.083 132.085 150.79 131.776 150.416 131.552C150.043 131.328 149.622 131.216 149.152 131.216C148.608 131.216 148.134 131.344 147.728 131.6C147.334 131.845 147.024 132.197 146.8 132.656C146.576 133.104 146.464 133.637 146.464 134.256C146.464 134.885 146.571 135.435 146.784 135.904C147.008 136.373 147.318 136.736 147.712 136.992C148.118 137.248 148.587 137.376 149.12 137.376C149.686 137.376 150.176 137.253 150.592 137.008C151.019 136.763 151.398 136.379 151.728 135.856L152.4 136.288C151.984 136.928 151.499 137.403 150.944 137.712C150.4 138.011 149.76 138.16 149.024 138.16ZM157.18 138.16C156.519 138.16 155.932 137.995 155.42 137.664C154.908 137.333 154.503 136.88 154.204 136.304C153.916 135.717 153.772 135.051 153.772 134.304C153.772 133.557 153.922 132.896 154.22 132.32C154.519 131.744 154.935 131.296 155.468 130.976C156.002 130.645 156.615 130.48 157.308 130.48C157.98 130.48 158.567 130.635 159.068 130.944C159.58 131.253 159.975 131.685 160.252 132.24C160.54 132.784 160.684 133.413 160.684 134.128C160.684 134.192 160.679 134.261 160.668 134.336C160.668 134.411 160.663 134.475 160.652 134.528H154.3V133.808H160.028L159.676 134.304C159.698 134.251 159.719 134.181 159.74 134.096C159.772 134 159.788 133.909 159.788 133.824C159.788 133.323 159.676 132.875 159.452 132.48C159.239 132.085 158.946 131.776 158.572 131.552C158.199 131.328 157.778 131.216 157.308 131.216C156.764 131.216 156.29 131.344 155.884 131.6C155.49 131.845 155.18 132.197 154.956 132.656C154.732 133.104 154.62 133.637 154.62 134.256C154.62 134.885 154.727 135.435 154.94 135.904C155.164 136.373 155.474 136.736 155.868 136.992C156.274 137.248 156.743 137.376 157.276 137.376C157.842 137.376 158.332 137.253 158.748 137.008C159.175 136.763 159.554 136.379 159.884 135.856L160.556 136.288C160.14 136.928 159.655 137.403 159.1 137.712C158.556 138.011 157.916 138.16 157.18 138.16ZM162.569 125.52H163.401V138H162.569V125.52ZM169.605 130.64H172.837V131.424H169.605V130.64ZM170.805 128.08H171.637V138H170.805V128.08ZM175.073 125.52V138H174.241V125.52H175.073ZM178.961 133.264C178.961 132.635 178.822 132.144 178.545 131.792C178.278 131.44 177.841 131.264 177.233 131.264C176.817 131.264 176.443 131.365 176.113 131.568C175.793 131.771 175.537 132.043 175.345 132.384C175.163 132.725 175.073 133.104 175.073 133.52H174.785C174.785 132.933 174.897 132.416 175.121 131.968C175.355 131.509 175.67 131.147 176.065 130.88C176.459 130.613 176.913 130.48 177.425 130.48C177.937 130.48 178.369 130.587 178.721 130.8C179.073 131.003 179.339 131.307 179.521 131.712C179.702 132.107 179.793 132.592 179.793 133.168V138H178.961V133.264ZM185.087 138.16C184.425 138.16 183.839 137.995 183.327 137.664C182.815 137.333 182.409 136.88 182.111 136.304C181.823 135.717 181.679 135.051 181.679 134.304C181.679 133.557 181.828 132.896 182.127 132.32C182.425 131.744 182.841 131.296 183.375 130.976C183.908 130.645 184.521 130.48 185.215 130.48C185.887 130.48 186.473 130.635 186.975 130.944C187.487 131.253 187.881 131.685 188.159 132.24C188.447 132.784 188.591 133.413 188.591 134.128C188.591 134.192 188.585 134.261 188.575 134.336C188.575 134.411 188.569 134.475 188.559 134.528H182.207V133.808H187.935L187.583 134.304C187.604 134.251 187.625 134.181 187.647 134.096C187.679 134 187.695 133.909 187.695 133.824C187.695 133.323 187.583 132.875 187.359 132.48C187.145 132.085 186.852 131.776 186.479 131.552C186.105 131.328 185.684 131.216 185.215 131.216C184.671 131.216 184.196 131.344 183.791 131.6C183.396 131.845 183.087 132.197 182.863 132.656C182.639 133.104 182.527 133.637 182.527 134.256C182.527 134.885 182.633 135.435 182.847 135.904C183.071 136.373 183.38 136.736 183.775 136.992C184.18 137.248 184.649 137.376 185.183 137.376C185.748 137.376 186.239 137.253 186.655 137.008C187.081 136.763 187.46 136.379 187.791 135.856L188.463 136.288C188.047 136.928 187.561 137.403 187.007 137.712C186.463 138.011 185.823 138.16 185.087 138.16ZM204.648 133.168V138H203.816V133.264C203.816 132.624 203.693 132.133 203.448 131.792C203.202 131.44 202.824 131.264 202.312 131.264C201.949 131.264 201.618 131.36 201.32 131.552C201.032 131.744 200.802 132.011 200.632 132.352C200.461 132.693 200.376 133.083 200.376 133.52V138H199.544V133.264C199.544 132.624 199.421 132.133 199.176 131.792C198.93 131.44 198.552 131.264 198.04 131.264C197.677 131.264 197.346 131.36 197.048 131.552C196.76 131.744 196.53 132.011 196.36 132.352C196.189 132.693 196.104 133.083 196.104 133.52V138H195.272V130.64H196.104V132.128C196.296 131.605 196.578 131.2 196.952 130.912C197.325 130.624 197.752 130.48 198.232 130.48C198.765 130.48 199.202 130.635 199.544 130.944C199.885 131.243 200.114 131.653 200.232 132.176C200.445 131.643 200.754 131.227 201.16 130.928C201.565 130.629 202.013 130.48 202.504 130.48C202.962 130.48 203.352 130.587 203.672 130.8C203.992 131.013 204.232 131.323 204.392 131.728C204.562 132.133 204.648 132.613 204.648 133.168ZM209.946 138.16C209.285 138.16 208.698 137.995 208.186 137.664C207.674 137.333 207.269 136.88 206.97 136.304C206.682 135.717 206.538 135.051 206.538 134.304C206.538 133.557 206.687 132.896 206.986 132.32C207.285 131.744 207.701 131.296 208.234 130.976C208.767 130.645 209.381 130.48 210.074 130.48C210.746 130.48 211.333 130.635 211.834 130.944C212.346 131.253 212.741 131.685 213.018 132.24C213.306 132.784 213.45 133.413 213.45 134.128C213.45 134.192 213.445 134.261 213.434 134.336C213.434 134.411 213.429 134.475 213.418 134.528H207.066V133.808H212.794L212.442 134.304C212.463 134.251 212.485 134.181 212.506 134.096C212.538 134 212.554 133.909 212.554 133.824C212.554 133.323 212.442 132.875 212.218 132.48C212.005 132.085 211.711 131.776 211.338 131.552C210.965 131.328 210.543 131.216 210.074 131.216C209.53 131.216 209.055 131.344 208.65 131.6C208.255 131.845 207.946 132.197 207.722 132.656C207.498 133.104 207.386 133.637 207.386 134.256C207.386 134.885 207.493 135.435 207.706 135.904C207.93 136.373 208.239 136.736 208.634 136.992C209.039 137.248 209.509 137.376 210.042 137.376C210.607 137.376 211.098 137.253 211.514 137.008C211.941 136.763 212.319 136.379 212.65 135.856L213.322 136.288C212.906 136.928 212.421 137.403 211.866 137.712C211.322 138.011 210.682 138.16 209.946 138.16ZM215.318 135.904C215.425 136.171 215.569 136.416 215.75 136.64C215.932 136.864 216.161 137.045 216.438 137.184C216.726 137.323 217.062 137.392 217.446 137.392C217.894 137.392 218.252 137.28 218.518 137.056C218.796 136.821 218.934 136.501 218.934 136.096C218.934 135.797 218.849 135.552 218.678 135.36C218.508 135.157 218.284 134.992 218.006 134.864C217.729 134.725 217.43 134.603 217.11 134.496C216.769 134.368 216.438 134.224 216.118 134.064C215.798 133.904 215.532 133.691 215.318 133.424C215.116 133.147 215.014 132.789 215.014 132.352C215.014 131.936 215.116 131.589 215.318 131.312C215.532 131.035 215.804 130.832 216.134 130.704C216.476 130.565 216.838 130.496 217.222 130.496C217.638 130.496 218.012 130.565 218.342 130.704C218.673 130.843 218.956 131.024 219.19 131.248C219.425 131.472 219.606 131.723 219.734 132L219.046 132.416C218.876 132.096 218.636 131.819 218.326 131.584C218.017 131.349 217.617 131.232 217.126 131.232C216.764 131.232 216.454 131.323 216.198 131.504C215.953 131.685 215.83 131.952 215.83 132.304C215.83 132.592 215.91 132.832 216.07 133.024C216.23 133.205 216.444 133.355 216.71 133.472C216.977 133.589 217.26 133.701 217.558 133.808C217.953 133.957 218.316 134.123 218.646 134.304C218.988 134.485 219.26 134.709 219.462 134.976C219.676 135.243 219.782 135.584 219.782 136C219.782 136.64 219.558 137.163 219.11 137.568C218.673 137.963 218.102 138.16 217.398 138.16C216.886 138.16 216.438 138.069 216.054 137.888C215.681 137.707 215.377 137.472 215.142 137.184C214.918 136.896 214.753 136.597 214.646 136.288L215.318 135.904ZM221.771 135.904C221.878 136.171 222.022 136.416 222.203 136.64C222.385 136.864 222.614 137.045 222.891 137.184C223.179 137.323 223.515 137.392 223.899 137.392C224.347 137.392 224.705 137.28 224.971 137.056C225.249 136.821 225.387 136.501 225.387 136.096C225.387 135.797 225.302 135.552 225.131 135.36C224.961 135.157 224.737 134.992 224.459 134.864C224.182 134.725 223.883 134.603 223.563 134.496C223.222 134.368 222.891 134.224 222.571 134.064C222.251 133.904 221.985 133.691 221.771 133.424C221.569 133.147 221.467 132.789 221.467 132.352C221.467 131.936 221.569 131.589 221.771 131.312C221.985 131.035 222.257 130.832 222.587 130.704C222.929 130.565 223.291 130.496 223.675 130.496C224.091 130.496 224.465 130.565 224.795 130.704C225.126 130.843 225.409 131.024 225.643 131.248C225.878 131.472 226.059 131.723 226.187 132L225.499 132.416C225.329 132.096 225.089 131.819 224.779 131.584C224.47 131.349 224.07 131.232 223.579 131.232C223.217 131.232 222.907 131.323 222.651 131.504C222.406 131.685 222.283 131.952 222.283 132.304C222.283 132.592 222.363 132.832 222.523 133.024C222.683 133.205 222.897 133.355 223.163 133.472C223.43 133.589 223.713 133.701 224.011 133.808C224.406 133.957 224.769 134.123 225.099 134.304C225.441 134.485 225.713 134.709 225.915 134.976C226.129 135.243 226.235 135.584 226.235 136C226.235 136.64 226.011 137.163 225.563 137.568C225.126 137.963 224.555 138.16 223.851 138.16C223.339 138.16 222.891 138.069 222.507 137.888C222.134 137.707 221.83 137.472 221.595 137.184C221.371 136.896 221.206 136.597 221.099 136.288L221.771 135.904ZM228.369 135.792C228.369 136.155 228.449 136.459 228.609 136.704C228.779 136.949 229.003 137.136 229.281 137.264C229.569 137.381 229.883 137.44 230.225 137.44C230.641 137.44 231.019 137.344 231.361 137.152C231.713 136.96 231.995 136.677 232.209 136.304C232.422 135.931 232.529 135.472 232.529 134.928L232.721 135.632C232.721 136.208 232.582 136.683 232.305 137.056C232.027 137.429 231.681 137.707 231.265 137.888C230.849 138.069 230.427 138.16 230.001 138.16C229.585 138.16 229.185 138.075 228.801 137.904C228.417 137.723 228.107 137.461 227.873 137.12C227.638 136.779 227.521 136.347 227.521 135.824C227.521 135.109 227.766 134.544 228.257 134.128C228.758 133.712 229.435 133.504 230.289 133.504C230.769 133.504 231.179 133.563 231.521 133.68C231.873 133.787 232.161 133.909 232.385 134.048C232.609 134.187 232.769 134.304 232.865 134.4V134.928C232.502 134.672 232.113 134.485 231.697 134.368C231.291 134.24 230.865 134.176 230.417 134.176C230.001 134.176 229.638 134.235 229.329 134.352C229.03 134.469 228.795 134.645 228.625 134.88C228.454 135.115 228.369 135.419 228.369 135.792ZM228.401 131.984L227.985 131.36C228.262 131.168 228.619 130.976 229.057 130.784C229.505 130.581 230.054 130.48 230.705 130.48C231.259 130.48 231.734 130.571 232.129 130.752C232.523 130.933 232.827 131.195 233.041 131.536C233.254 131.877 233.361 132.293 233.361 132.784V138H232.529V132.896C232.529 132.683 232.497 132.48 232.433 132.288C232.369 132.085 232.262 131.904 232.113 131.744C231.974 131.584 231.782 131.456 231.537 131.36C231.291 131.264 230.993 131.216 230.641 131.216C230.278 131.216 229.953 131.259 229.665 131.344C229.377 131.429 229.126 131.531 228.913 131.648C228.71 131.765 228.539 131.877 228.401 131.984ZM235.183 138.48H236.031C236.031 138.939 236.137 139.349 236.351 139.712C236.564 140.075 236.863 140.363 237.247 140.576C237.641 140.789 238.095 140.896 238.607 140.896C239.065 140.896 239.497 140.789 239.903 140.576C240.308 140.363 240.639 140.027 240.895 139.568C241.161 139.12 241.295 138.544 241.295 137.84V130.64H242.127V137.84C242.127 138.683 241.961 139.387 241.631 139.952C241.3 140.528 240.868 140.96 240.335 141.248C239.801 141.536 239.225 141.68 238.607 141.68C237.935 141.68 237.337 141.547 236.815 141.28C236.303 141.013 235.903 140.635 235.615 140.144C235.327 139.664 235.183 139.109 235.183 138.48ZM235.007 134.32C235.007 133.52 235.167 132.837 235.487 132.272C235.807 131.696 236.233 131.253 236.767 130.944C237.311 130.635 237.908 130.48 238.559 130.48C239.199 130.48 239.748 130.651 240.207 130.992C240.665 131.323 241.023 131.776 241.279 132.352C241.545 132.928 241.679 133.584 241.679 134.32C241.679 135.045 241.545 135.701 241.279 136.288C241.023 136.864 240.665 137.323 240.207 137.664C239.748 137.995 239.199 138.16 238.559 138.16C237.908 138.16 237.311 138.005 236.767 137.696C236.233 137.387 235.807 136.944 235.487 136.368C235.167 135.792 235.007 135.109 235.007 134.32ZM235.855 134.32C235.855 134.96 235.977 135.509 236.223 135.968C236.479 136.427 236.82 136.779 237.247 137.024C237.684 137.259 238.159 137.376 238.671 137.376C239.129 137.376 239.556 137.243 239.951 136.976C240.356 136.709 240.681 136.347 240.927 135.888C241.172 135.419 241.295 134.885 241.295 134.288C241.295 133.861 241.225 133.467 241.087 133.104C240.948 132.741 240.751 132.421 240.495 132.144C240.249 131.867 239.967 131.653 239.647 131.504C239.337 131.344 239.012 131.264 238.671 131.264C238.159 131.264 237.684 131.387 237.247 131.632C236.82 131.867 236.479 132.213 236.223 132.672C235.977 133.131 235.855 133.68 235.855 134.32ZM247.337 138.16C246.675 138.16 246.089 137.995 245.577 137.664C245.065 137.333 244.659 136.88 244.361 136.304C244.073 135.717 243.929 135.051 243.929 134.304C243.929 133.557 244.078 132.896 244.377 132.32C244.675 131.744 245.091 131.296 245.625 130.976C246.158 130.645 246.771 130.48 247.465 130.48C248.137 130.48 248.723 130.635 249.225 130.944C249.737 131.253 250.131 131.685 250.409 132.24C250.697 132.784 250.841 133.413 250.841 134.128C250.841 134.192 250.835 134.261 250.825 134.336C250.825 134.411 250.819 134.475 250.809 134.528H244.457V133.808H250.185L249.833 134.304C249.854 134.251 249.875 134.181 249.897 134.096C249.929 134 249.945 133.909 249.945 133.824C249.945 133.323 249.833 132.875 249.609 132.48C249.395 132.085 249.102 131.776 248.729 131.552C248.355 131.328 247.934 131.216 247.465 131.216C246.921 131.216 246.446 131.344 246.041 131.6C245.646 131.845 245.337 132.197 245.113 132.656C244.889 133.104 244.777 133.637 244.777 134.256C244.777 134.885 244.883 135.435 245.097 135.904C245.321 136.373 245.63 136.736 246.025 136.992C246.43 137.248 246.899 137.376 247.433 137.376C247.998 137.376 248.489 137.253 248.905 137.008C249.331 136.763 249.71 136.379 250.041 135.856L250.713 136.288C250.297 136.928 249.811 137.403 249.257 137.712C248.713 138.011 248.073 138.16 247.337 138.16ZM252.344 137.616C252.344 137.445 252.403 137.301 252.52 137.184C252.637 137.067 252.776 137.008 252.936 137.008C253.107 137.008 253.245 137.067 253.352 137.184C253.469 137.301 253.528 137.445 253.528 137.616C253.528 137.776 253.469 137.915 253.352 138.032C253.245 138.149 253.107 138.208 252.936 138.208C252.776 138.208 252.637 138.149 252.52 138.032C252.403 137.915 252.344 137.776 252.344 137.616Z" fill="white"/>
<path d="M326 21.5C340.663 21.5 352.5 32.7194 352.5 46.5C352.5 60.2806 340.663 71.5 326 71.5C311.337 71.5 299.5 60.2806 299.5 46.5C299.5 32.7194 311.337 21.5 326 21.5Z" stroke="#BE3D3D"/>
<path d="M326 21.5C340.663 21.5 352.5 32.7194 352.5 46.5C352.5 60.2806 340.663 71.5 326 71.5C311.337 71.5 299.5 60.2806 299.5 46.5C299.5 32.7194 311.337 21.5 326 21.5Z" stroke="#BE3D3D"/>
<path d="M338.166 69.5C338.492 69.4992 338.699 69.5796 338.854 69.7256C339.022 69.8849 339.191 70.1804 339.313 70.7314C339.434 71.2733 339.498 72.0137 339.499 73.0088C338.998 76.79 337.679 81.2806 335.438 84.8945C333.198 88.5049 330.087 91.1709 326.01 91.4961C322.244 91.0064 319.128 88.3325 316.805 84.7559C314.481 81.1787 313.004 76.7738 312.5 73.0078C312.501 72.0132 312.566 71.2731 312.687 70.7314C312.809 70.1804 312.978 69.8849 313.146 69.7256C313.301 69.5796 313.508 69.4992 313.834 69.5C314.175 69.5008 314.608 69.5909 315.164 69.7598C317.354 70.4253 320.981 72.1895 326 72.1895C331.019 72.1895 334.646 70.4253 336.836 69.7598C337.392 69.5909 337.825 69.5008 338.166 69.5Z" stroke="#BE3D3D"/>
<path d="M338.166 69.5C338.492 69.4992 338.699 69.5796 338.854 69.7256C339.022 69.8849 339.191 70.1804 339.313 70.7314C339.434 71.2733 339.498 72.0137 339.499 73.0088C338.998 76.79 337.679 81.2806 335.438 84.8945C333.198 88.5049 330.087 91.1709 326.01 91.4961C322.244 91.0064 319.128 88.3325 316.805 84.7559C314.481 81.1787 313.004 76.7738 312.5 73.0078C312.501 72.0132 312.566 71.2731 312.687 70.7314C312.809 70.1804 312.978 69.8849 313.146 69.7256C313.301 69.5796 313.508 69.4992 313.834 69.5C314.175 69.5008 314.608 69.5909 315.164 69.7598C317.354 70.4253 320.981 72.1895 326 72.1895C331.019 72.1895 334.646 70.4253 336.836 69.7598C337.392 69.5909 337.825 69.5008 338.166 69.5Z" stroke="#BE3D3D"/>
<path d="M335.474 48.4824C331.84 49.6266 328.922 50.1712 325.995 50.1523C323.068 50.1334 320.15 49.5518 316.52 48.4697L326 71.2207L335.474 48.4824Z" stroke="#BE3D3D" stroke-width="0.6"/>
<path d="M335.474 48.4824C331.84 49.6266 328.922 50.1712 325.995 50.1523C323.068 50.1334 320.15 49.5518 316.52 48.4697L326 71.2207L335.474 48.4824Z" stroke="#BE3D3D" stroke-width="0.6"/>
<path d="M74 21.5C88.6629 21.5 100.5 32.7194 100.5 46.5C100.5 60.2806 88.6629 71.5 74 71.5C59.3371 71.5 47.5 60.2806 47.5 46.5C47.5 32.7194 59.3371 21.5 74 21.5Z" stroke="#BE9C3D"/>
<path d="M86.166 69.5C86.4919 69.4992 86.6986 69.5796 86.8535 69.7256C87.0224 69.8849 87.1912 70.1804 87.3135 70.7314C87.4337 71.2733 87.4976 72.0137 87.499 73.0088C86.9978 76.79 85.6788 81.2806 83.4375 84.8945C81.1984 88.5049 78.0872 91.1709 74.0098 91.4961C70.2442 91.0064 67.1276 88.3325 64.8047 84.7559C62.4815 81.1787 61.0045 76.7738 60.5 73.0078C60.5015 72.0132 60.5664 71.2731 60.6865 70.7314C60.8088 70.1804 60.9776 69.8849 61.1465 69.7256C61.3014 69.5796 61.5081 69.4992 61.834 69.5C62.1751 69.5008 62.6084 69.5909 63.1641 69.7598C65.3543 70.4253 68.9809 72.1895 74 72.1895C79.0191 72.1895 82.6457 70.4253 84.8359 69.7598C85.3916 69.5909 85.8249 69.5008 86.166 69.5Z" stroke="#BE9C3D"/>
<path d="M83.4736 48.4824C79.8403 49.6266 76.9224 50.1712 73.9951 50.1523C71.0681 50.1334 68.1503 49.5518 64.5195 48.4697L74 71.2207L83.4736 48.4824Z" stroke="#BE9C3D" stroke-width="0.6"/>
<line x1="316" y1="81.7" x2="336" y2="81.7" stroke="#BE3D3D" stroke-width="0.6"/>
<line x1="316" y1="81.7" x2="336" y2="81.7" stroke="#BE3D3D" stroke-width="0.6"/>
<line x1="64" y1="81.7" x2="84" y2="81.7" stroke="#BE9C3D" stroke-width="0.6"/>
</svg>
