<svg width="36" height="46" viewBox="0 0 36 46" fill="none" xmlns="http://www.w3.org/2000/svg">
<path d="M18 0.5C27.6923 0.5 35.5 7.91384 35.5 17C35.5 26.0862 27.6923 33.5 18 33.5C8.30771 33.5 0.5 26.0862 0.5 17C0.5 7.91384 8.30771 0.5 18 0.5Z" stroke="#A39F9F"/>
<path d="M26.6904 31.5C26.908 31.4995 27.023 31.5484 27.0996 31.6143C27.1848 31.6876 27.2915 31.841 27.373 32.1768C27.453 32.5057 27.4973 32.9662 27.499 33.6006C27.1428 36.0398 26.2098 38.9323 24.6309 41.2568C23.0556 43.5759 20.8736 45.2841 18.0117 45.4971C15.3686 45.1803 13.1783 43.4662 11.54 41.1631C9.90148 38.8595 8.85812 36.0228 8.5 33.5996C8.50172 32.9657 8.54707 32.5056 8.62695 32.1768C8.70853 31.841 8.8152 31.6876 8.90039 31.6143C8.97703 31.5484 9.09199 31.4995 9.30957 31.5C9.5382 31.5005 9.83627 31.5557 10.2305 31.665C11.7784 32.0945 14.395 33.2539 18 33.2539C21.605 33.2539 24.2216 32.0945 25.7695 31.665C26.1637 31.5557 26.4618 31.5005 26.6904 31.5Z" stroke="#A39F9F"/>
<path d="M23.4932 18.4941C21.412 19.2047 19.7087 19.5476 17.9951 19.5352C16.2822 19.5227 14.579 19.1561 12.501 18.4814L18 33.1455L23.4932 18.4941Z" stroke="#A39F9F" stroke-width="0.6"/>
</svg>
