<svg width="36" height="46" viewBox="0 0 36 46" fill="none" xmlns="http://www.w3.org/2000/svg">
<path d="M18 45.5C27.6923 45.5 35.5 38.0862 35.5 29C35.5 19.9138 27.6923 12.5 18 12.5C8.30771 12.5 0.5 19.9138 0.5 29C0.5 38.0862 8.30771 45.5 18 45.5Z" stroke="#A39F9F"/>
<path d="M26.6904 14.5C26.908 14.5005 27.023 14.4516 27.0996 14.3857C27.1848 14.3124 27.2915 14.159 27.373 13.8232C27.453 13.4943 27.4973 13.0338 27.499 12.3994C27.1428 9.96019 26.2098 7.06774 24.6309 4.74316C23.0556 2.42414 20.8736 0.715872 18.0117 0.50293C15.3686 0.819738 13.1783 2.53379 11.54 4.83691C9.90148 7.14053 8.85812 9.97718 8.5 12.4004C8.50172 13.0343 8.54707 13.4944 8.62695 13.8232C8.70853 14.159 8.8152 14.3124 8.90039 14.3857C8.97703 14.4516 9.09199 14.5005 9.30957 14.5C9.5382 14.4995 9.83627 14.4443 10.2305 14.335C11.7784 13.9055 14.395 12.7461 18 12.7461C21.605 12.7461 24.2216 13.9055 25.7695 14.335C26.1637 14.4443 26.4618 14.4995 26.6904 14.5Z" stroke="#A39F9F"/>
<path d="M23.4932 27.5059C21.412 26.7953 19.7087 26.4524 17.9951 26.4648C16.2822 26.4773 14.579 26.8439 12.501 27.5186L18 12.8545L23.4932 27.5059Z" stroke="#A39F9F" stroke-width="0.6"/>
</svg>
