<svg width="306" height="89" viewBox="0 0 306 89" fill="none" xmlns="http://www.w3.org/2000/svg">
<path d="M81.744 37.4H87.504V71H81.744V37.4ZM92.592 71H85.248V65.672H92.448C94.112 65.672 95.648 65.432 97.056 64.952C98.464 64.472 99.68 63.752 100.704 62.792C101.76 61.832 102.576 60.632 103.152 59.192C103.76 57.752 104.064 56.088 104.064 54.2C104.064 52.312 103.76 50.648 103.152 49.208C102.576 47.768 101.76 46.568 100.704 45.608C99.68 44.648 98.464 43.928 97.056 43.448C95.648 42.968 94.112 42.728 92.448 42.728H85.248V37.4H92.592C96.016 37.4 99.024 38.104 101.616 39.512C104.208 40.888 106.224 42.84 107.664 45.368C109.136 47.864 109.872 50.808 109.872 54.2C109.872 57.592 109.136 60.552 107.664 63.08C106.224 65.576 104.208 67.528 101.616 68.936C99.024 70.312 96.016 71 92.592 71ZM120.104 48.92V71H114.968V48.92H120.104ZM126.68 54.44C126.2 54.056 125.752 53.768 125.336 53.576C124.92 53.384 124.392 53.288 123.752 53.288C122.888 53.288 122.184 53.512 121.64 53.96C121.096 54.408 120.696 55.032 120.44 55.832C120.216 56.6 120.104 57.512 120.104 58.568L118.376 57.56C118.376 55.8 118.696 54.248 119.336 52.904C120.008 51.528 120.856 50.44 121.88 49.64C122.936 48.84 124.024 48.44 125.144 48.44C125.944 48.44 126.696 48.568 127.4 48.824C128.104 49.048 128.696 49.464 129.176 50.072L126.68 54.44ZM132.542 40.136C132.542 39.24 132.862 38.488 133.502 37.88C134.174 37.272 134.942 36.968 135.806 36.968C136.734 36.968 137.502 37.272 138.11 37.88C138.75 38.488 139.07 39.24 139.07 40.136C139.07 41 138.75 41.752 138.11 42.392C137.502 43 136.734 43.304 135.806 43.304C134.942 43.304 134.174 43 133.502 42.392C132.862 41.752 132.542 41 132.542 40.136ZM133.262 48.92H138.35V71H133.262V48.92ZM143.66 48.92H156.332V53.48H143.66V48.92ZM155.756 39.128C155.436 38.616 155.068 38.28 154.652 38.12C154.268 37.96 153.868 37.88 153.452 37.88C152.972 37.88 152.556 38.008 152.204 38.264C151.884 38.52 151.628 38.936 151.436 39.512C151.244 40.088 151.148 40.84 151.148 41.768V71H146.06V40.76C146.06 39.032 146.332 37.608 146.876 36.488C147.452 35.336 148.268 34.472 149.324 33.896C150.38 33.288 151.676 32.984 153.212 32.984C154.076 32.984 154.828 33.096 155.468 33.32C156.108 33.544 156.652 33.816 157.1 34.136C157.58 34.456 157.948 34.776 158.204 35.096L155.756 39.128ZM157.224 48.92H169.752V53.48H157.224V48.92ZM160.92 41.24H166.056V71H160.92V41.24ZM173.52 37.4H179.184V59.72C179.184 61.8 179.728 63.48 180.816 64.76C181.936 66.008 183.584 66.632 185.76 66.632C187.904 66.632 189.536 66.008 190.656 64.76C191.776 63.48 192.336 61.8 192.336 59.72V37.4H198V59.96C198 61.816 197.696 63.48 197.088 64.952C196.512 66.392 195.68 67.624 194.592 68.648C193.504 69.672 192.208 70.456 190.704 71C189.2 71.544 187.552 71.816 185.76 71.816C183.968 71.816 182.32 71.544 180.816 71C179.312 70.456 178 69.672 176.88 68.648C175.792 67.624 174.96 66.392 174.384 64.952C173.808 63.48 173.52 61.816 173.52 59.96V37.4ZM205.836 63.752C206.54 64.52 207.244 65.192 207.948 65.768C208.684 66.312 209.42 66.728 210.156 67.016C210.892 67.272 211.628 67.4 212.364 67.4C213.292 67.4 214.012 67.192 214.524 66.776C215.068 66.36 215.34 65.784 215.34 65.048C215.34 64.408 215.132 63.864 214.716 63.416C214.3 62.936 213.724 62.536 212.988 62.216C212.252 61.864 211.388 61.512 210.396 61.16C209.404 60.776 208.412 60.328 207.42 59.816C206.46 59.272 205.66 58.568 205.02 57.704C204.412 56.84 204.108 55.752 204.108 54.44C204.108 53.096 204.444 51.976 205.116 51.08C205.82 50.184 206.748 49.528 207.9 49.112C209.084 48.664 210.348 48.44 211.692 48.44C212.908 48.44 214.044 48.616 215.1 48.968C216.188 49.32 217.164 49.784 218.028 50.36C218.892 50.936 219.628 51.592 220.236 52.328L217.356 55.4C216.62 54.536 215.74 53.832 214.716 53.288C213.692 52.744 212.636 52.472 211.548 52.472C210.812 52.472 210.204 52.632 209.724 52.952C209.244 53.272 209.004 53.736 209.004 54.344C209.004 54.856 209.212 55.32 209.628 55.736C210.076 56.12 210.652 56.472 211.356 56.792C212.092 57.112 212.908 57.448 213.804 57.8C215.02 58.28 216.14 58.808 217.164 59.384C218.188 59.96 219.004 60.664 219.612 61.496C220.252 62.328 220.572 63.416 220.572 64.76C220.572 66.84 219.852 68.52 218.412 69.8C217.004 71.048 215.084 71.672 212.652 71.672C211.148 71.672 209.756 71.448 208.476 71C207.228 70.52 206.124 69.912 205.164 69.176C204.236 68.408 203.452 67.608 202.812 66.776L205.836 63.752Z" fill="white"/>
<path d="M279 0.5C293.663 0.5 305.5 11.7194 305.5 25.5C305.5 39.2806 293.663 50.5 279 50.5C264.337 50.5 252.5 39.2806 252.5 25.5C252.5 11.7194 264.337 0.5 279 0.5Z" stroke="#BE3D3D"/>
<path d="M279 0.5C293.663 0.5 305.5 11.7194 305.5 25.5C305.5 39.2806 293.663 50.5 279 50.5C264.337 50.5 252.5 39.2806 252.5 25.5C252.5 11.7194 264.337 0.5 279 0.5Z" stroke="#BE3D3D"/>
<path d="M291.166 48.5C291.492 48.4992 291.699 48.5796 291.854 48.7256C292.022 48.8849 292.191 49.1804 292.313 49.7314C292.434 50.2733 292.498 51.0137 292.499 52.0088C291.998 55.79 290.679 60.2806 288.438 63.8945C286.198 67.5049 283.087 70.1709 279.01 70.4961C275.244 70.0064 272.128 67.3325 269.805 63.7559C267.481 60.1787 266.004 55.7738 265.5 52.0078C265.501 51.0132 265.566 50.2731 265.687 49.7314C265.809 49.1804 265.978 48.8849 266.146 48.7256C266.301 48.5796 266.508 48.4992 266.834 48.5C267.175 48.5008 267.608 48.5909 268.164 48.7598C270.354 49.4253 273.981 51.1895 279 51.1895C284.019 51.1895 287.646 49.4253 289.836 48.7598C290.392 48.5909 290.825 48.5008 291.166 48.5Z" stroke="#BE3D3D"/>
<path d="M291.166 48.5C291.492 48.4992 291.699 48.5796 291.854 48.7256C292.022 48.8849 292.191 49.1804 292.313 49.7314C292.434 50.2733 292.498 51.0137 292.499 52.0088C291.998 55.79 290.679 60.2806 288.438 63.8945C286.198 67.5049 283.087 70.1709 279.01 70.4961C275.244 70.0064 272.128 67.3325 269.805 63.7559C267.481 60.1787 266.004 55.7738 265.5 52.0078C265.501 51.0132 265.566 50.2731 265.687 49.7314C265.809 49.1804 265.978 48.8849 266.146 48.7256C266.301 48.5796 266.508 48.4992 266.834 48.5C267.175 48.5008 267.608 48.5909 268.164 48.7598C270.354 49.4253 273.981 51.1895 279 51.1895C284.019 51.1895 287.646 49.4253 289.836 48.7598C290.392 48.5909 290.825 48.5008 291.166 48.5Z" stroke="#BE3D3D"/>
<path d="M288.474 27.4824C284.84 28.6266 281.922 29.1712 278.995 29.1523C276.068 29.1334 273.15 28.5518 269.52 27.4697L279 50.2207L288.474 27.4824Z" stroke="#BE3D3D" stroke-width="0.6"/>
<path d="M288.474 27.4824C284.84 28.6266 281.922 29.1712 278.995 29.1523C276.068 29.1334 273.15 28.5518 269.52 27.4697L279 50.2207L288.474 27.4824Z" stroke="#BE3D3D" stroke-width="0.6"/>
<path d="M27 0.5C41.6629 0.5 53.5 11.7194 53.5 25.5C53.5 39.2806 41.6629 50.5 27 50.5C12.3371 50.5 0.5 39.2806 0.5 25.5C0.5 11.7194 12.3371 0.5 27 0.5Z" stroke="#BE9C3D"/>
<path d="M39.166 48.5C39.4919 48.4992 39.6986 48.5796 39.8535 48.7256C40.0224 48.8849 40.1912 49.1804 40.3135 49.7314C40.4337 50.2733 40.4976 51.0137 40.499 52.0088C39.9978 55.79 38.6788 60.2806 36.4375 63.8945C34.1984 67.5049 31.0872 70.1709 27.0098 70.4961C23.2442 70.0064 20.1276 67.3325 17.8047 63.7559C15.4815 60.1787 14.0045 55.7738 13.5 52.0078C13.5015 51.0132 13.5664 50.2731 13.6865 49.7314C13.8088 49.1804 13.9776 48.8849 14.1465 48.7256C14.3014 48.5796 14.5081 48.4992 14.834 48.5C15.1751 48.5008 15.6084 48.5909 16.1641 48.7598C18.3543 49.4253 21.9809 51.1895 27 51.1895C32.0191 51.1895 35.6457 49.4253 37.8359 48.7598C38.3916 48.5909 38.8249 48.5008 39.166 48.5Z" stroke="#BE9C3D"/>
<path d="M36.4736 27.4824C32.8403 28.6266 29.9224 29.1712 26.9951 29.1523C24.0681 29.1334 21.1503 28.5518 17.5195 27.4697L27 50.2207L36.4736 27.4824Z" stroke="#BE9C3D" stroke-width="0.6"/>
<line x1="269" y1="60.7" x2="289" y2="60.7" stroke="#BE3D3D" stroke-width="0.6"/>
<line x1="269" y1="60.7" x2="289" y2="60.7" stroke="#BE3D3D" stroke-width="0.6"/>
<line x1="17" y1="60.7" x2="37" y2="60.7" stroke="#BE9C3D" stroke-width="0.6"/>
</svg>
